<svg xmlns="http://www.w3.org/2000/svg" viewBox="0 0 90.16 69.6"><defs><style>.cls-1{fill:#f2c537;}.cls-2{fill:#ff8a41;}.cls-3{fill:#20cfc1;}.cls-4{fill:#f27729;}.cls-5{fill:#855641;}.cls-6{fill:#714836;}.cls-7{fill:#f2a416;}</style></defs><g id="Layer_2" data-name="Layer 2"><g id="Ñëîé_2" data-name="Ñëîé 2"><path class="cls-1" d="M36.79,39.46V4.26H10L0,27.52V52.88H11.13a12.45,12.45,0,0,1,22.09,0H61a12.45,12.45,0,0,1,22.09,0h7.12V39.46Z"/><rect class="cls-2" x="41.91" width="43.98" height="39.39"/><path class="cls-3" d="M22.66,28.56a3.15,3.15,0,0,0,3.15-3.14V12.85a3.15,3.15,0,0,0-3.15-3.14H18.18a5,5,0,0,0-4.31,2.92l-5.13,13a2,2,0,0,0,2,2.92Z"/><path class="cls-4" d="M22.66,29.44H10.73a2.87,2.87,0,0,1-2.8-4.12l5.13-13a5.85,5.85,0,0,1,5.12-3.48h4.48a4,4,0,0,1,4,4V25.42A4,4,0,0,1,22.66,29.44ZM18.18,10.58A4.09,4.09,0,0,0,14.69,13L9.56,26a1.33,1.33,0,0,0,0,1.25,1.34,1.34,0,0,0,1.16.48H22.66a2.27,2.27,0,0,0,2.27-2.27V12.85a2.27,2.27,0,0,0-2.27-2.27Z"/><circle class="cls-5" cx="72" cy="58.65" r="10.33" transform="translate(-20.38 68.09) rotate(-45)"/><path class="cls-6" d="M72,69.6A11,11,0,1,1,83,58.65,11,11,0,0,1,72,69.6Zm0-20.66a9.71,9.71,0,1,0,9.71,9.71A9.72,9.72,0,0,0,72,48.94Z"/><path class="cls-1" d="M72,63.89a5.25,5.25,0,1,1,5.25-5.24A5.25,5.25,0,0,1,72,63.89Z"/><path class="cls-1" d="M72,64.52a5.88,5.88,0,1,1,5.87-5.87A5.88,5.88,0,0,1,72,64.52ZM72,54a4.63,4.63,0,1,0,4.63,4.63A4.63,4.63,0,0,0,72,54Z"/><path class="cls-5" d="M32.51,58.65A10.34,10.34,0,1,1,22.18,48.31,10.33,10.33,0,0,1,32.51,58.65Z"/><path class="cls-6" d="M22.18,69.6a11,11,0,1,1,11-10.95A11,11,0,0,1,22.18,69.6Zm0-20.66a9.71,9.71,0,1,0,9.7,9.71A9.71,9.71,0,0,0,22.18,48.94Z"/><path class="cls-1" d="M22.18,63.89a5.25,5.25,0,1,1,5.25-5.24A5.25,5.25,0,0,1,22.18,63.89Z"/><path class="cls-1" d="M22.18,64.52a5.88,5.88,0,1,1,5.87-5.87A5.89,5.89,0,0,1,22.18,64.52Zm0-10.5a4.63,4.63,0,1,0,4.62,4.63A4.63,4.63,0,0,0,22.18,54Z"/><rect class="cls-7" x="2.5" y="40.52" width="86.5" height="4.44"/><rect class="cls-4" x="39.27" width="2.65" height="39.39"/><rect class="cls-4" x="44.45" width="2.65" height="39.39"/><rect class="cls-4" x="49.63" width="2.65" height="39.39"/><rect class="cls-4" x="54.81" width="2.65" height="39.39"/><rect class="cls-4" x="59.99" width="2.65" height="39.39"/><rect class="cls-4" x="65.17" width="2.65" height="39.39"/><rect class="cls-4" x="70.35" width="2.65" height="39.39"/><rect class="cls-4" x="75.53" width="2.65" height="39.39"/><rect class="cls-4" x="80.71" width="2.65" height="39.39"/><rect class="cls-4" x="85.89" width="2.65" height="39.39"/></g></g></svg>