<svg xmlns="http://www.w3.org/2000/svg" viewBox="0 0 64.89 81.91"><defs><style>.cls-1{fill:#c7d97c;}.cls-2{fill:#84ae42;}.cls-3{fill:#f2c537;}.cls-4{fill:#de413d;}.cls-5{fill:#f5d15f;}.cls-6{fill:#e56764;}</style></defs><g id="Layer_2" data-name="Layer 2"><g id="ñëîé1"><rect class="cls-1" x="5.92" y="8.25" width="30.05" height="65.69" transform="translate(-7.36 4.68) rotate(-10.85)"/><path class="cls-2" d="M13.75,72.94,39.4,68,28.12,9.24,2.48,14.16Zm1.38-2.44L4.67,15.92l22.08-4.23L37.21,66.27Z"/><path class="cls-2" d="M22.72,50.4c6.1-1.17,10.2-6.49,9.17-11.88S25.08,29.69,19,30.86,8.77,37.36,9.81,42.75,16.63,51.57,22.72,50.4Z"/><path class="cls-1" d="M19.43,42c-1.15-1.7-1.54-1.78-2-1.69-.59.11-.85.69-.68,1.54a4.12,4.12,0,0,0,1,2.05l.6.69-.8.49-1.25.77-.61.38-.46-.52a5.8,5.8,0,0,1-1.2-2.08l-1.23.24-.81.16-.16-.77L11.65,42l-.15-.78.81-.16,1.41-.28A4.09,4.09,0,0,1,17.07,37c2.44-.48,3.92,1.24,5,3,.95,1.43,1.53,1.54,2,1.44.82-.16,1-1,.87-1.85a4.67,4.67,0,0,0-1.24-2.34l-.71-.7.89-.53,1.27-.75.55-.33.46.43a6.25,6.25,0,0,1,1.53,2.56l1.31-.26.81-.16.15.78.25,1.27.16.78-.82.16-1.47.28a4.34,4.34,0,0,1-3.5,4C22,45.25,20.46,43.53,19.43,42Z"/><polygon class="cls-2" points="2.48 14.16 12.83 12.18 4.6 25.21 2.48 14.16"/><polygon class="cls-2" points="13.75 72.94 24.1 70.96 11.64 61.89 13.75 72.94"/><polygon class="cls-2" points="27.99 9.27 17.64 11.25 30.11 20.32 27.99 9.27"/><polygon class="cls-2" points="39.26 68.06 28.91 70.04 37.14 57 39.26 68.06"/><rect class="cls-1" x="11.11" y="20.06" width="65.69" height="30.05" transform="translate(1.22 71.65) rotate(-79.15)"/><path class="cls-2" d="M62.41,8.15,36.77,3.23,25.5,62l25.64,4.91ZM27.68,60.25,38.15,5.68,60.23,9.91,49.76,64.49Z"/><path class="cls-2" d="M42.17,44.39C36.07,43.22,32,37.9,33,32.5s6.82-8.82,12.92-7.65,10.2,6.49,9.16,11.89S48.27,45.56,42.17,44.39Z"/><path class="cls-1" d="M45.46,36c1.15-1.7,1.54-1.78,2-1.69.59.11.84.69.67,1.54a4.12,4.12,0,0,1-1,2l-.6.69.8.49,1.25.77.61.38.46-.52a5.88,5.88,0,0,0,1.2-2.08l1.23.24.82.16.15-.78L53.25,36l.15-.78L52.58,35l-1.4-.28a4.11,4.11,0,0,0-3.35-3.82c-2.44-.48-3.93,1.24-5,3-1,1.43-1.53,1.54-2,1.44-.82-.16-1-1-.87-1.86a4.69,4.69,0,0,1,1.24-2.33l.71-.7L41,30l-1.28-.75-.55-.33-.46.43a6.36,6.36,0,0,0-1.53,2.56l-1.3-.26L35,31.44l-.15.78-.25,1.27-.15.77.81.16,1.48.29a4.32,4.32,0,0,0,3.49,4C42.91,39.24,44.43,37.52,45.46,36Z"/><polygon class="cls-2" points="62.41 8.15 52.07 6.17 60.29 19.2 62.41 8.15"/><polygon class="cls-2" points="51.14 66.93 40.8 64.95 53.26 55.88 51.14 66.93"/><polygon class="cls-2" points="36.9 3.26 47.25 5.24 34.79 14.31 36.9 3.26"/><polygon class="cls-2" points="25.63 62.04 35.98 64.03 27.75 50.99 25.63 62.04"/><path class="cls-3" d="M5.94,38.67H57.12a3.47,3.47,0,0,1,3.47,3.47v36.3a3.46,3.46,0,0,1-3.46,3.46H5.94a3.46,3.46,0,0,1-3.46-3.46V42.14A3.46,3.46,0,0,1,5.94,38.67Z"/><path class="cls-4" d="M57.12,79.48h-.81v-.69h.81a.33.33,0,0,0,.25-.11l.5.48A1,1,0,0,1,57.12,79.48Zm-2.88,0H52.85v-.69h1.39Zm-3.45,0H49.41v-.69h1.38Zm-3.45,0H46v-.69h1.38Zm-3.45,0H42.51v-.69h1.38Zm-3.45,0H39.06v-.69h1.38Zm-3.44,0H35.62v-.69H37Zm-3.45,0H32.17v-.69h1.38Zm-3.45,0H28.72v-.69H30.1Zm-3.45,0H25.27v-.69h1.38Zm-3.45,0H21.82v-.69H23.2Zm-3.45,0H18.38v-.69h1.37Zm-3.44,0H14.93v-.69h1.38Zm-3.45,0H11.48v-.69h1.38Zm-3.45,0H8v-.69H9.41ZM6,79.48h0a1,1,0,0,1-1-1v-.29h.7v.29a.35.35,0,0,0,.34.35Zm52.2-2.58h-.69V75.52h.69ZM5.6,76.08H4.9V74.7h.7Zm52.56-2.63h-.69V72.07h.69ZM5.6,72.63H4.9V71.25h.7ZM58.16,70h-.69V68.62h.69ZM5.6,69.19H4.9V67.81h.7Zm52.56-2.63h-.69V65.18h.69ZM5.6,65.74H4.9V64.36h.7Zm52.56-2.63h-.69V61.73h.69ZM5.6,62.29H4.9V60.91h.7Zm52.56-2.63h-.69V58.28h.69ZM5.6,58.84H4.9V57.46h.7Zm52.56-2.63h-.69V54.83h.69ZM5.6,55.39H4.9V54h.7Zm52.56-2.63h-.69V51.38h.69ZM5.6,52H4.9V50.57h.7Zm52.56-2.63h-.69V47.94h.69ZM5.6,48.5H4.9V47.12h.7Zm52.56-2.63h-.69V44.49h.69ZM5.6,45.05H4.9V43.67h.7Zm52.56-2.63h-.69v-.28a.34.34,0,0,0-.35-.35V41.1h0a1,1,0,0,1,1,1ZM5.7,41.9l-.5-.49a1,1,0,0,1,.74-.31h.83v.69H5.94A.32.32,0,0,0,5.7,41.9ZM55,41.79H53.67V41.1H55Zm-3.44,0H50.22V41.1H51.6Zm-3.45,0H46.77V41.1h1.38Zm-3.45,0H43.32V41.1H44.7Zm-3.45,0H39.87V41.1h1.38Zm-3.45,0H36.42V41.1H37.8Zm-3.44,0H33V41.1h1.38Zm-3.45,0H29.53V41.1h1.38Zm-3.45,0H26.08V41.1h1.38Zm-3.45,0H22.63V41.1H24Zm-3.45,0H19.18V41.1h1.38Zm-3.45,0H15.74V41.1h1.37Zm-3.44,0H12.29V41.1h1.38Zm-3.45,0H8.84V41.1h1.38Z"/><path class="cls-4" d="M45.77,50.88a3.89,3.89,0,0,0-3.89,3.9V62a3.9,3.9,0,0,0,3.89,3.9H60.58v-15Z"/><path class="cls-5" d="M45.77,52.79a3.89,3.89,0,0,0-3.89,3.89V63.9a3.89,3.89,0,0,0,3.89,3.89H60.58v-15Z"/><path class="cls-4" d="M53.66,60.29a4.86,4.86,0,1,1-4.85-4.85A4.85,4.85,0,0,1,53.66,60.29Z"/><path class="cls-6" d="M50.25,58.38A2.37,2.37,0,1,1,47.88,56,2.37,2.37,0,0,1,50.25,58.38Z"/></g></g></svg>