<svg xmlns="http://www.w3.org/2000/svg" viewBox="0 0 57.72 76.74"><defs><style>.cls-1{fill:#dcab14;}.cls-2{fill:#479da7;}.cls-3{fill:#5ebfd2;}.cls-4{fill:#f2c537;}.cls-5{fill:#2e4150;}.cls-6{fill:#de413d;}.cls-7{fill:#3d576a;}.cls-8{fill:#d4d4d4;}</style></defs><g id="Layer_2" data-name="Layer 2"><g id="ñëîé1"><rect class="cls-1" x="22.21" y="28.35" width="35.51" height="31.47"/><rect class="cls-2" x="12.51" width="5.5" height="68.56"/><rect class="cls-2" x="14.51" y="63.19" width="43.21" height="5.5"/><rect class="cls-3" width="15.27" height="5.81"/><rect class="cls-3" x="9.77" width="5.5" height="68.56"/><rect class="cls-3" x="11.77" y="63.2" width="43.21" height="5.49"/><rect class="cls-4" x="19.47" y="28.35" width="35.51" height="31.47"/><path class="cls-5" d="M25.31,65.94a10.8,10.8,0,1,1-10.8-10.81A10.8,10.8,0,0,1,25.31,65.94Z"/><rect class="cls-6" x="30.04" y="39.75" width="4.75" height="10.24"/><polygon class="cls-6" points="27.74 42.11 32.42 34.02 37.09 42.11 27.74 42.11"/><rect class="cls-6" x="40.81" y="39.86" width="4.75" height="10.24"/><polygon class="cls-6" points="38.51 42.22 43.19 34.13 47.86 42.22 38.51 42.22"/><rect class="cls-1" x="45.36" y="3.31" width="2" height="23.03"/><rect class="cls-6" x="27.74" y="51.43" width="20.12" height="3.71"/><path class="cls-7" d="M23.32,65.94a10.81,10.81,0,1,1-10.8-10.8A10.8,10.8,0,0,1,23.32,65.94Z"/><path class="cls-8" d="M19.47,65.94A7,7,0,1,1,12.52,59,6.95,6.95,0,0,1,19.47,65.94Z"/><polygon class="cls-4" points="37.09 3.31 35.96 7.73 34.82 6.9 34.08 7.73 33.28 6.96 32.37 7.73 31.47 6.96 30.67 7.73 29.93 6.9 28.79 7.73 27.66 3.31 21.39 3.31 19.38 3.31 19.38 26.34 21.39 26.34 45.36 26.34 45.36 3.31 37.09 3.31"/></g></g></svg>